<mxfile host="app.diagrams.net" modified="2024-06-23T11:51:29.623Z" agent="Mozilla/5.0 (Windows NT 10.0; Win64; x64) AppleWebKit/537.36 (KHTML, like Gecko) Chrome/126.0.0.0 Safari/537.36" etag="TKFSMWdhZpn80lTdZ7nf" version="24.6.2" type="google" pages="2">
  <diagram name="Page-1" id="-HiGiuMKCpGHFuoCna79">
    <mxGraphModel grid="1" page="1" gridSize="10" guides="1" tooltips="1" connect="1" arrows="1" fold="1" pageScale="1" pageWidth="850" pageHeight="1100" math="0" shadow="0">
      <root>
        <mxCell id="0" />
        <mxCell id="1" parent="0" />
        <mxCell id="ngI3NwFHm3_SKhVi3sQO-1" value="VPC" style="points=[[0,0],[0.25,0],[0.5,0],[0.75,0],[1,0],[1,0.25],[1,0.5],[1,0.75],[1,1],[0.75,1],[0.5,1],[0.25,1],[0,1],[0,0.75],[0,0.5],[0,0.25]];outlineConnect=0;gradientColor=none;html=1;whiteSpace=wrap;fontSize=12;fontStyle=0;container=1;pointerEvents=0;collapsible=0;recursiveResize=0;shape=mxgraph.aws4.group;grIcon=mxgraph.aws4.group_vpc2;strokeColor=#8C4FFF;fillColor=none;verticalAlign=top;align=left;spacingLeft=30;fontColor=#AAB7B8;dashed=0;" vertex="1" parent="1">
          <mxGeometry x="-810" y="130" width="800" height="380" as="geometry" />
        </mxCell>
        <mxCell id="ngI3NwFHm3_SKhVi3sQO-2" value="" style="rounded=1;arcSize=15;dashed=0;fillColor=none;gradientColor=none;strokeWidth=2;" vertex="1" parent="ngI3NwFHm3_SKhVi3sQO-1">
          <mxGeometry x="200" y="61.38" width="210" height="125" as="geometry" />
        </mxCell>
        <mxCell id="ngI3NwFHm3_SKhVi3sQO-3" value="" style="dashed=0;html=1;shape=mxgraph.aws3.permissions;fillColor=#D9A741;gradientColor=none;dashed=0;" vertex="1" parent="ngI3NwFHm3_SKhVi3sQO-1">
          <mxGeometry x="740" y="30" width="30" height="35" as="geometry" />
        </mxCell>
        <mxCell id="ngI3NwFHm3_SKhVi3sQO-6" value="" style="outlineConnect=0;dashed=0;verticalLabelPosition=bottom;verticalAlign=top;align=center;html=1;shape=mxgraph.aws3.lambda_function;fillColor=#F58534;gradientColor=none;" vertex="1" parent="ngI3NwFHm3_SKhVi3sQO-1">
          <mxGeometry x="590" y="77.5" width="69" height="72" as="geometry" />
        </mxCell>
        <mxCell id="skvaN7638biHfdhDwHRz-1" value="Security Group" style="fontStyle=0;verticalAlign=top;align=center;spacingTop=-2;fillColor=none;rounded=0;whiteSpace=wrap;html=1;strokeColor=#FF0000;strokeWidth=2;dashed=1;container=1;collapsible=0;expand=0;recursiveResize=0;" vertex="1" parent="ngI3NwFHm3_SKhVi3sQO-1">
          <mxGeometry x="550" y="41.5" width="220" height="309" as="geometry" />
        </mxCell>
        <mxCell id="skvaN7638biHfdhDwHRz-6" value="" style="rounded=1;arcSize=15;dashed=0;fillColor=none;gradientColor=none;strokeWidth=2;" vertex="1" parent="skvaN7638biHfdhDwHRz-1">
          <mxGeometry x="10" y="171" width="200" height="125" as="geometry" />
        </mxCell>
        <mxCell id="ngI3NwFHm3_SKhVi3sQO-8" value="" style="outlineConnect=0;dashed=0;verticalLabelPosition=bottom;verticalAlign=top;align=center;html=1;shape=mxgraph.aws3.rds_db_instance;fillColor=#2E73B8;gradientColor=none;" vertex="1" parent="skvaN7638biHfdhDwHRz-1">
          <mxGeometry x="140" y="218.5" width="40" height="50.75" as="geometry" />
        </mxCell>
        <mxCell id="skvaN7638biHfdhDwHRz-14" value="" style="outlineConnect=0;dashed=0;verticalLabelPosition=bottom;verticalAlign=top;align=center;html=1;shape=mxgraph.aws3.lambda_function;fillColor=#F58534;gradientColor=none;" vertex="1" parent="skvaN7638biHfdhDwHRz-1">
          <mxGeometry x="30" y="207.88" width="69" height="72" as="geometry" />
        </mxCell>
        <mxCell id="U0oZ-vIfGSWHHYjTra_n-4" value="" style="endArrow=classic;html=1;rounded=0;" edge="1" parent="skvaN7638biHfdhDwHRz-1">
          <mxGeometry width="50" height="50" relative="1" as="geometry">
            <mxPoint x="90" y="243.38" as="sourcePoint" />
            <mxPoint x="150" y="243.38" as="targetPoint" />
          </mxGeometry>
        </mxCell>
        <mxCell id="skvaN7638biHfdhDwHRz-7" value="" style="dashed=0;html=1;shape=mxgraph.aws3.permissions;fillColor=#D9A741;gradientColor=none;dashed=0;" vertex="1" parent="skvaN7638biHfdhDwHRz-1">
          <mxGeometry x="180" y="155.5" width="30" height="35" as="geometry" />
        </mxCell>
        <mxCell id="U0oZ-vIfGSWHHYjTra_n-12" value="" style="endArrow=classic;html=1;rounded=0;" edge="1" parent="skvaN7638biHfdhDwHRz-1">
          <mxGeometry width="50" height="50" relative="1" as="geometry">
            <mxPoint x="-50" y="76.5" as="sourcePoint" />
            <mxPoint x="20" y="76.5" as="targetPoint" />
            <Array as="points">
              <mxPoint x="20" y="76.5" />
            </Array>
          </mxGeometry>
        </mxCell>
        <mxCell id="U0oZ-vIfGSWHHYjTra_n-1" value="" style="rounded=1;arcSize=15;dashed=0;fillColor=none;gradientColor=none;strokeWidth=2;" vertex="1" parent="skvaN7638biHfdhDwHRz-1">
          <mxGeometry x="10" y="7.25" width="200" height="125" as="geometry" />
        </mxCell>
        <mxCell id="vqpF6V-Z719kfioWM6BJ-24" value="aws lambda" style="text;html=1;align=center;verticalAlign=middle;resizable=0;points=[];autosize=1;strokeColor=none;fillColor=none;" vertex="1" parent="skvaN7638biHfdhDwHRz-1">
          <mxGeometry x="30" y="102.25" width="90" height="30" as="geometry" />
        </mxCell>
        <mxCell id="vqpF6V-Z719kfioWM6BJ-23" value="aws lambda" style="text;html=1;align=center;verticalAlign=middle;resizable=0;points=[];autosize=1;strokeColor=none;fillColor=none;" vertex="1" parent="skvaN7638biHfdhDwHRz-1">
          <mxGeometry x="19.5" y="269.25" width="90" height="30" as="geometry" />
        </mxCell>
        <mxCell id="vqpF6V-Z719kfioWM6BJ-25" value="RDS DB" style="text;html=1;align=center;verticalAlign=middle;resizable=0;points=[];autosize=1;strokeColor=none;fillColor=none;" vertex="1" parent="skvaN7638biHfdhDwHRz-1">
          <mxGeometry x="125" y="266" width="70" height="30" as="geometry" />
        </mxCell>
        <mxCell id="vqpF6V-Z719kfioWM6BJ-26" value="read replica" style="text;html=1;align=center;verticalAlign=middle;resizable=0;points=[];autosize=1;strokeColor=none;fillColor=none;" vertex="1" parent="skvaN7638biHfdhDwHRz-1">
          <mxGeometry x="115" y="98.5" width="90" height="30" as="geometry" />
        </mxCell>
        <mxCell id="skvaN7638biHfdhDwHRz-4" value="" style="rounded=1;arcSize=15;dashed=0;fillColor=none;gradientColor=none;strokeWidth=2;" vertex="1" parent="ngI3NwFHm3_SKhVi3sQO-1">
          <mxGeometry x="200" y="220" width="210" height="125" as="geometry" />
        </mxCell>
        <mxCell id="skvaN7638biHfdhDwHRz-9" value="" style="endArrow=classic;html=1;rounded=0;" edge="1" parent="ngI3NwFHm3_SKhVi3sQO-1">
          <mxGeometry width="50" height="50" relative="1" as="geometry">
            <mxPoint x="410" y="118" as="sourcePoint" />
            <mxPoint x="450" y="118" as="targetPoint" />
          </mxGeometry>
        </mxCell>
        <mxCell id="skvaN7638biHfdhDwHRz-11" value="" style="sketch=0;points=[[0,0,0],[0.25,0,0],[0.5,0,0],[0.75,0,0],[1,0,0],[0,1,0],[0.25,1,0],[0.5,1,0],[0.75,1,0],[1,1,0],[0,0.25,0],[0,0.5,0],[0,0.75,0],[1,0.25,0],[1,0.5,0],[1,0.75,0]];outlineConnect=0;fontColor=#232F3E;fillColor=#DD344C;strokeColor=#ffffff;dashed=0;verticalLabelPosition=bottom;verticalAlign=top;align=center;html=1;fontSize=12;fontStyle=0;aspect=fixed;shape=mxgraph.aws4.resourceIcon;resIcon=mxgraph.aws4.amplify;" vertex="1" parent="ngI3NwFHm3_SKhVi3sQO-1">
          <mxGeometry x="300" y="247.5" width="70" height="70" as="geometry" />
        </mxCell>
        <mxCell id="skvaN7638biHfdhDwHRz-12" value="" style="sketch=0;points=[[0,0,0],[0.25,0,0],[0.5,0,0],[0.75,0,0],[1,0,0],[0,1,0],[0.25,1,0],[0.5,1,0],[0.75,1,0],[1,1,0],[0,0.25,0],[0,0.5,0],[0,0.75,0],[1,0.25,0],[1,0.5,0],[1,0.75,0]];outlineConnect=0;fontColor=#232F3E;fillColor=#DD344C;strokeColor=#ffffff;dashed=0;verticalLabelPosition=bottom;verticalAlign=top;align=center;html=1;fontSize=12;fontStyle=0;aspect=fixed;shape=mxgraph.aws4.resourceIcon;resIcon=mxgraph.aws4.amplify;" vertex="1" parent="ngI3NwFHm3_SKhVi3sQO-1">
          <mxGeometry x="300" y="88.88" width="70" height="70" as="geometry" />
        </mxCell>
        <mxCell id="vqpF6V-Z719kfioWM6BJ-21" style="edgeStyle=orthogonalEdgeStyle;rounded=0;orthogonalLoop=1;jettySize=auto;html=1;exitX=0.08;exitY=0.11;exitDx=0;exitDy=0;exitPerimeter=0;entryX=0;entryY=0;entryDx=0;entryDy=0;" edge="1" parent="ngI3NwFHm3_SKhVi3sQO-1" source="skvaN7638biHfdhDwHRz-17" target="skvaN7638biHfdhDwHRz-4">
          <mxGeometry relative="1" as="geometry" />
        </mxCell>
        <mxCell id="skvaN7638biHfdhDwHRz-17" value="" style="outlineConnect=0;dashed=0;verticalLabelPosition=bottom;verticalAlign=top;align=center;html=1;shape=mxgraph.aws3.iam;fillColor=#759C3E;gradientColor=none;" vertex="1" parent="ngI3NwFHm3_SKhVi3sQO-1">
          <mxGeometry x="200" y="206.5" width="12" height="41" as="geometry" />
        </mxCell>
        <mxCell id="skvaN7638biHfdhDwHRz-18" value="" style="outlineConnect=0;dashed=0;verticalLabelPosition=bottom;verticalAlign=top;align=center;html=1;shape=mxgraph.aws3.iam;fillColor=#759C3E;gradientColor=none;" vertex="1" parent="ngI3NwFHm3_SKhVi3sQO-1">
          <mxGeometry x="200" y="47.88" width="12" height="41" as="geometry" />
        </mxCell>
        <mxCell id="U0oZ-vIfGSWHHYjTra_n-2" value="" style="outlineConnect=0;dashed=0;verticalLabelPosition=bottom;verticalAlign=top;align=center;html=1;shape=mxgraph.aws3.internet_gateway;fillColor=#F58534;gradientColor=none;" vertex="1" parent="ngI3NwFHm3_SKhVi3sQO-1">
          <mxGeometry x="170" y="95.13" width="60" height="57.5" as="geometry" />
        </mxCell>
        <mxCell id="U0oZ-vIfGSWHHYjTra_n-3" value="" style="outlineConnect=0;dashed=0;verticalLabelPosition=bottom;verticalAlign=top;align=center;html=1;shape=mxgraph.aws3.internet_gateway;fillColor=#F58534;gradientColor=none;" vertex="1" parent="ngI3NwFHm3_SKhVi3sQO-1">
          <mxGeometry x="170" y="260" width="60" height="57.5" as="geometry" />
        </mxCell>
        <mxCell id="U0oZ-vIfGSWHHYjTra_n-5" value="Amazon API Gateway" style="sketch=0;outlineConnect=0;fontColor=#232F3E;gradientColor=none;strokeColor=#ffffff;fillColor=#232F3E;dashed=0;verticalLabelPosition=middle;verticalAlign=bottom;align=center;html=1;whiteSpace=wrap;fontSize=10;fontStyle=1;spacing=3;shape=mxgraph.aws4.productIcon;prIcon=mxgraph.aws4.api_gateway;" vertex="1" parent="ngI3NwFHm3_SKhVi3sQO-1">
          <mxGeometry x="450" y="90.75" width="50" height="90.25" as="geometry" />
        </mxCell>
        <mxCell id="U0oZ-vIfGSWHHYjTra_n-8" value="Amazon API Gateway" style="sketch=0;outlineConnect=0;fontColor=#232F3E;gradientColor=none;strokeColor=#ffffff;fillColor=#232F3E;dashed=0;verticalLabelPosition=middle;verticalAlign=bottom;align=center;html=1;whiteSpace=wrap;fontSize=10;fontStyle=1;spacing=3;shape=mxgraph.aws4.productIcon;prIcon=mxgraph.aws4.api_gateway;" vertex="1" parent="ngI3NwFHm3_SKhVi3sQO-1">
          <mxGeometry x="445" y="249" width="50" height="85.87" as="geometry" />
        </mxCell>
        <mxCell id="U0oZ-vIfGSWHHYjTra_n-10" value="" style="endArrow=classic;html=1;rounded=0;" edge="1" parent="ngI3NwFHm3_SKhVi3sQO-1">
          <mxGeometry width="50" height="50" relative="1" as="geometry">
            <mxPoint x="490" y="274.5" as="sourcePoint" />
            <mxPoint x="560" y="274.5" as="targetPoint" />
            <Array as="points">
              <mxPoint x="560" y="274.5" />
            </Array>
          </mxGeometry>
        </mxCell>
        <mxCell id="U0oZ-vIfGSWHHYjTra_n-11" value="" style="endArrow=classic;html=1;rounded=0;" edge="1" parent="ngI3NwFHm3_SKhVi3sQO-1">
          <mxGeometry width="50" height="50" relative="1" as="geometry">
            <mxPoint x="410" y="274.5" as="sourcePoint" />
            <mxPoint x="450" y="275" as="targetPoint" />
          </mxGeometry>
        </mxCell>
        <mxCell id="U0oZ-vIfGSWHHYjTra_n-13" value="" style="outlineConnect=0;dashed=0;verticalLabelPosition=bottom;verticalAlign=top;align=center;html=1;shape=mxgraph.aws3.rds_db_instance_read_replica;fillColor=#2E73B8;gradientColor=none;" vertex="1" parent="ngI3NwFHm3_SKhVi3sQO-1">
          <mxGeometry x="690" y="88.88" width="39.5" height="57.25" as="geometry" />
        </mxCell>
        <mxCell id="U0oZ-vIfGSWHHYjTra_n-14" value="" style="endArrow=classic;html=1;rounded=0;" edge="1" parent="ngI3NwFHm3_SKhVi3sQO-1">
          <mxGeometry width="50" height="50" relative="1" as="geometry">
            <mxPoint x="659" y="118" as="sourcePoint" />
            <mxPoint x="690" y="118" as="targetPoint" />
          </mxGeometry>
        </mxCell>
        <mxCell id="vqpF6V-Z719kfioWM6BJ-2" value="" style="outlineConnect=0;dashed=0;verticalLabelPosition=bottom;verticalAlign=top;align=center;html=1;shape=mxgraph.aws3.elastic_load_balancing;fillColor=#F58534;gradientColor=none;" vertex="1" parent="ngI3NwFHm3_SKhVi3sQO-1">
          <mxGeometry x="40" y="170" width="46.5" height="50.5" as="geometry" />
        </mxCell>
        <mxCell id="vqpF6V-Z719kfioWM6BJ-6" value="" style="endArrow=classic;html=1;rounded=0;" edge="1" parent="ngI3NwFHm3_SKhVi3sQO-1">
          <mxGeometry width="50" height="50" relative="1" as="geometry">
            <mxPoint x="60" y="113" as="sourcePoint" />
            <mxPoint x="170" y="113" as="targetPoint" />
          </mxGeometry>
        </mxCell>
        <mxCell id="vqpF6V-Z719kfioWM6BJ-12" value="" style="endArrow=classic;html=1;rounded=0;" edge="1" parent="ngI3NwFHm3_SKhVi3sQO-1">
          <mxGeometry width="50" height="50" relative="1" as="geometry">
            <mxPoint x="60" y="300" as="sourcePoint" />
            <mxPoint x="170" y="300" as="targetPoint" />
          </mxGeometry>
        </mxCell>
        <mxCell id="vqpF6V-Z719kfioWM6BJ-13" value="" style="endArrow=none;html=1;rounded=0;" edge="1" parent="ngI3NwFHm3_SKhVi3sQO-1">
          <mxGeometry width="50" height="50" relative="1" as="geometry">
            <mxPoint x="60" y="170" as="sourcePoint" />
            <mxPoint x="60" y="110" as="targetPoint" />
          </mxGeometry>
        </mxCell>
        <mxCell id="vqpF6V-Z719kfioWM6BJ-14" value="" style="endArrow=none;html=1;rounded=0;" edge="1" parent="ngI3NwFHm3_SKhVi3sQO-1">
          <mxGeometry width="50" height="50" relative="1" as="geometry">
            <mxPoint x="60" y="300" as="sourcePoint" />
            <mxPoint x="60" y="220" as="targetPoint" />
          </mxGeometry>
        </mxCell>
        <mxCell id="vqpF6V-Z719kfioWM6BJ-17" value="Load balancer" style="text;html=1;align=center;verticalAlign=middle;resizable=0;points=[];autosize=1;strokeColor=none;fillColor=none;" vertex="1" parent="ngI3NwFHm3_SKhVi3sQO-1">
          <mxGeometry x="13.25" y="217.5" width="100" height="30" as="geometry" />
        </mxCell>
        <mxCell id="vqpF6V-Z719kfioWM6BJ-19" value="amplify" style="text;html=1;align=center;verticalAlign=middle;resizable=0;points=[];autosize=1;strokeColor=none;fillColor=none;" vertex="1" parent="ngI3NwFHm3_SKhVi3sQO-1">
          <mxGeometry x="305" y="315" width="60" height="30" as="geometry" />
        </mxCell>
        <mxCell id="vqpF6V-Z719kfioWM6BJ-18" value="amplify" style="text;html=1;align=center;verticalAlign=middle;resizable=0;points=[];autosize=1;strokeColor=none;fillColor=none;" vertex="1" parent="ngI3NwFHm3_SKhVi3sQO-1">
          <mxGeometry x="305" y="156.38" width="60" height="30" as="geometry" />
        </mxCell>
        <mxCell id="vqpF6V-Z719kfioWM6BJ-22" value="internet gateway" style="text;html=1;align=center;verticalAlign=middle;resizable=0;points=[];autosize=1;strokeColor=none;fillColor=none;" vertex="1" parent="ngI3NwFHm3_SKhVi3sQO-1">
          <mxGeometry x="151" y="310" width="110" height="30" as="geometry" />
        </mxCell>
        <mxCell id="vqpF6V-Z719kfioWM6BJ-20" value="internet gateway" style="text;html=1;align=center;verticalAlign=middle;resizable=0;points=[];autosize=1;strokeColor=none;fillColor=none;" vertex="1" parent="ngI3NwFHm3_SKhVi3sQO-1">
          <mxGeometry x="140" y="140" width="110" height="30" as="geometry" />
        </mxCell>
        <mxCell id="vqpF6V-Z719kfioWM6BJ-15" value="" style="image;aspect=fixed;html=1;points=[];align=center;fontSize=12;image=img/lib/azure2/management_governance/User_Privacy.svg;" vertex="1" parent="1">
          <mxGeometry x="-950" y="286" width="64" height="68" as="geometry" />
        </mxCell>
        <mxCell id="vqpF6V-Z719kfioWM6BJ-16" value="user" style="text;html=1;align=center;verticalAlign=middle;resizable=0;points=[];autosize=1;strokeColor=none;fillColor=none;" vertex="1" parent="1">
          <mxGeometry x="-915" y="348" width="50" height="30" as="geometry" />
        </mxCell>
        <mxCell id="vqpF6V-Z719kfioWM6BJ-27" value="" style="endArrow=classic;html=1;rounded=0;entryX=0;entryY=0.5;entryDx=0;entryDy=0;entryPerimeter=0;" edge="1" parent="1" target="vqpF6V-Z719kfioWM6BJ-2">
          <mxGeometry width="50" height="50" relative="1" as="geometry">
            <mxPoint x="-890" y="325.5" as="sourcePoint" />
            <mxPoint x="-780" y="325.5" as="targetPoint" />
          </mxGeometry>
        </mxCell>
      </root>
    </mxGraphModel>
  </diagram>
  <diagram id="LowImoSUIzOhbNCCpnFD" name="Page-2">
    <mxGraphModel dx="1050" dy="691" grid="1" gridSize="10" guides="1" tooltips="1" connect="1" arrows="1" fold="1" page="1" pageScale="1" pageWidth="850" pageHeight="1100" math="0" shadow="0">
      <root>
        <mxCell id="0" />
        <mxCell id="1" parent="0" />
      </root>
    </mxGraphModel>
  </diagram>
</mxfile>
